<svg width="13" height="16" viewBox="0 0 13 16" fill="none" xmlns="http://www.w3.org/2000/svg">
<path d="M11.7807 0.411066C11.5375 0.299005 11.2509 0.342612 11.052 0.521879L10.0023 1.45131C9.97374 1.47672 9.93066 1.47657 9.90226 1.451L8.47402 0.173594C8.21571 -0.0578647 7.82465 -0.0578647 7.56634 0.173594L6.13939 1.44983C6.11068 1.47547 6.0673 1.47547 6.0386 1.44983L4.61149 0.173594C4.35318 -0.0578269 3.96212 -0.0578269 3.70381 0.173594L2.27539 1.451C2.2468 1.47657 2.20361 1.47668 2.17486 1.45127L1.12422 0.521879C0.845487 0.274006 0.418575 0.299005 0.170702 0.577739C0.0595488 0.702734 -0.0012659 0.864529 1.99826e-05 1.03177V14.9682C-0.00247614 15.3418 0.298344 15.6467 0.671931 15.6492C0.839285 15.6503 1.00108 15.5893 1.12611 15.4781L2.17581 14.5487C2.20436 14.5233 2.24744 14.5234 2.27584 14.549L3.70408 15.8264C3.96239 16.0579 4.35345 16.0579 4.61176 15.8264L6.03886 14.5502C6.06757 14.5245 6.11095 14.5245 6.13965 14.5502L7.56675 15.8264C7.8251 16.0577 8.21612 16.0577 8.47443 15.8264L9.90294 14.549C9.93153 14.5234 9.97472 14.5233 10.0035 14.5487L11.0541 15.4781C11.333 15.7258 11.7598 15.7007 12.0076 15.4218C12.1185 15.2969 12.1793 15.1353 12.1781 14.9682V1.03177C12.1816 0.764041 12.0254 0.519912 11.7807 0.411066ZM2.50397 5.42824H6.27032C6.43741 5.42824 6.57288 5.56371 6.57288 5.7308C6.57288 5.89789 6.43741 6.03336 6.27032 6.03336H2.50397C2.33688 6.03336 2.20141 5.89789 2.20141 5.7308C2.20141 5.56371 2.33688 5.42824 2.50397 5.42824ZM9.67412 10.5718H2.50397C2.33688 10.5718 2.20141 10.4363 2.20141 10.2692C2.20141 10.1021 2.33688 9.96664 2.50397 9.96664H9.67412C9.84121 9.96664 9.97669 10.1021 9.97669 10.2692C9.97669 10.4363 9.84121 10.5718 9.67412 10.5718ZM9.67412 8.30256H2.50397C2.33688 8.30256 2.20141 8.16709 2.20141 8C2.20141 7.83291 2.33688 7.69744 2.50397 7.69744H9.67412C9.84121 7.69744 9.97669 7.83291 9.97669 8C9.97669 8.16709 9.84121 8.30256 9.67412 8.30256Z" fill="#64748B"/>
</svg>
