<svg width="18" height="18" viewBox="0 0 18 18" fill="none" xmlns="http://www.w3.org/2000/svg">
<path d="M10.8333 5.33317V3.49984C10.8333 3.01361 10.6402 2.54729 10.2964 2.20347C9.95254 1.85966 9.48623 1.6665 9 1.6665H2.58333C2.0971 1.6665 1.63079 1.85966 1.28697 2.20347C0.943154 2.54729 0.75 3.01361 0.75 3.49984V14.4998C0.75 14.9861 0.943154 15.4524 1.28697 15.7962C1.63079 16.14 2.0971 16.3332 2.58333 16.3332H9C9.48623 16.3332 9.95254 16.14 10.2964 15.7962C10.6402 15.4524 10.8333 14.9861 10.8333 14.4998V12.6665" stroke="#64748B" stroke-width="1.5" stroke-linecap="round" stroke-linejoin="round"/>
<path d="M4.4165 9H17.2498M17.2498 9L14.4998 6.25M17.2498 9L14.4998 11.75" stroke="#64748B" stroke-width="1.5" stroke-linecap="round" stroke-linejoin="round"/>
</svg>
