
<svg width="15" height="16" viewBox="0 0 15 16" fill="none" xmlns="http://www.w3.org/2000/svg">
<path d="M9.62856 8.99438C8.9529 9.44884 8.15711 9.69157 7.34284 9.69157C6.52857 9.69157 5.73278 9.44884 5.05713 8.99438C4.47639 9.39177 3.80227 9.63128 3.10098 9.68939C2.3997 9.7475 1.69536 9.6222 1.05713 9.32581V14.2858C1.05849 14.7401 1.23953 15.1753 1.56073 15.4965C1.88193 15.8177 2.31718 15.9987 2.77141 16.0001H4.4857V13.7144C4.48706 13.2601 4.6681 12.8249 4.9893 12.5037C5.3105 12.1825 5.74575 12.0015 6.19999 12.0001H8.4857C8.93994 12.0015 9.37519 12.1825 9.69638 12.5037C10.0176 12.8249 10.1986 13.2601 10.2 13.7144V16.0001H11.9143C12.3685 15.9987 12.8038 15.8177 13.125 15.4965C13.4462 15.1753 13.6272 14.7401 13.6286 14.2858V9.32581C13.0939 9.58336 12.5077 9.71622 11.9143 9.71438C11.0964 9.71536 10.2982 9.46392 9.62856 8.99438Z" fill="#64748B"/>
<path d="M14.5232 4.87943L13.2855 1.172C13.1718 0.831166 12.954 0.534655 12.6627 0.324354C12.3714 0.114053 12.0214 0.000592299 11.6621 0H3.02321C2.66393 0.000592299 2.31391 0.114053 2.02261 0.324354C1.73131 0.534655 1.51344 0.831166 1.39979 1.172L0.162072 4.87943C-0.0462815 5.4622 -0.0539571 6.09788 0.140264 6.68551C0.334484 7.27314 0.719466 7.77904 1.23407 8.12286C1.76293 8.44962 2.38242 8.5987 3.00204 8.54833C3.62166 8.49795 4.20894 8.25076 4.67807 7.84286C4.78221 7.74933 4.91724 7.6976 5.05721 7.6976C5.19719 7.6976 5.33222 7.74933 5.43636 7.84286C5.96739 8.29785 6.64363 8.54793 7.34293 8.54793C8.04222 8.54793 8.71847 8.29785 9.2495 7.84286C9.35364 7.74933 9.48867 7.6976 9.62864 7.6976C9.76861 7.6976 9.90365 7.74933 10.0078 7.84286C10.4725 8.25918 11.0608 8.51192 11.6827 8.56248C12.3046 8.61304 12.9259 8.45864 13.4518 8.12286C13.9662 7.77889 14.351 7.27295 14.5451 6.68535C14.7392 6.09775 14.7315 5.46215 14.5232 4.87943Z" fill="#64748B"/>
</svg>