<svg width="17" height="16" viewBox="0 0 17 16" fill="none" xmlns="http://www.w3.org/2000/svg">
<path d="M11.1498 4.71805C10.5727 2.0379 9.34205 0.342285 8.2038 0.342285C7.06555 0.342285 5.83487 2.0379 5.25781 4.71805H11.1498Z" fill="#64748B"/>
<path d="M4.92188 7.9999C4.92174 8.73163 4.97053 9.46256 5.06792 10.1878H11.3395C11.4369 9.46256 11.4857 8.73163 11.4855 7.9999C11.4857 7.26816 11.4369 6.53724 11.3395 5.81201H5.06792C4.97053 6.53724 4.92174 7.26816 4.92188 7.9999Z" fill="#64748B"/>
<path d="M5.25781 11.2817C5.83487 13.9619 7.06555 15.6575 8.2038 15.6575C9.34205 15.6575 10.5727 13.9619 11.1498 11.2817H5.25781Z" fill="#64748B"/>
<path d="M12.2699 4.71817H15.7158C15.198 3.53987 14.4113 2.4993 13.4188 1.67993C12.4263 0.860565 11.2555 0.285205 10.0005 0C11.0381 0.912895 11.852 2.60085 12.2699 4.71817V4.71817Z" fill="#64748B"/>
<path d="M16.1096 5.81201H12.4449C12.5351 6.53781 12.5802 7.26851 12.58 7.9999C12.5801 8.73129 12.5348 9.46199 12.4443 10.1878H16.109C16.5079 8.75646 16.5079 7.24333 16.109 5.81201H16.1096Z" fill="#64748B"/>
<path d="M10.0005 15.9999C11.2557 15.7149 12.4267 15.1396 13.4194 14.3202C14.4122 13.5008 15.199 12.4602 15.7169 11.2817H12.271C11.852 13.3991 11.0381 15.087 10.0005 15.9999V15.9999Z" fill="#64748B"/>
<path d="M4.13781 11.2817H0.691895C1.20976 12.4602 1.99663 13.5008 2.98936 14.3202C3.98209 15.1396 5.15305 15.7149 6.40829 15.9999C5.36959 15.087 4.5557 13.3991 4.13781 11.2817V11.2817Z" fill="#64748B"/>
<path d="M6.40731 0C5.15207 0.28505 3.98111 0.86034 2.98838 1.67972C1.99565 2.49909 1.20879 3.53974 0.690918 4.71817H4.13684C4.55582 2.60085 5.36971 0.912895 6.40731 0V0Z" fill="#64748B"/>
<path d="M3.82822 7.9999C3.82815 7.2685 3.87346 6.5378 3.96387 5.81201H0.299167C-0.0997222 7.24333 -0.0997222 8.75646 0.299167 10.1878H3.96387C3.87346 9.46199 3.82815 8.73129 3.82822 7.9999V7.9999Z" fill="#64748B"/>
</svg>
