<svg width="20" height="18" viewBox="0 0 20 18" fill="none" xmlns="http://www.w3.org/2000/svg">
<path d="M9.73926 4.83008V7.32758" stroke="#1E65BC" stroke-width="1.5" stroke-miterlimit="10" stroke-linecap="round"/>
<path d="M16.1818 11.3775C16.7293 12.2925 16.2943 13.4775 15.2818 13.815C11.6968 15.0075 7.81933 15.0075 4.23433 13.815C3.15433 13.455 2.74183 12.36 3.33433 11.3775L4.28683 9.7875C4.54933 9.3525 4.75933 8.58 4.75933 8.0775V6.5025C4.75933 3.735 6.99433 1.5 9.75433 1.5C12.4993 1.5 14.7493 3.75 14.7493 6.495V8.07C14.7493 8.205 14.7643 8.355 14.7868 8.5125" stroke="#1E65BC" stroke-width="1.5" stroke-miterlimit="10" stroke-linecap="round"/>
<path d="M12.1454 13.8406C12.2262 15.1492 11.2189 17.1053 9.84644 17.1053C9.16394 17.1053 8.60924 16.7933 8.15924 16.3433C7.70924 15.8933 7.39551 14.7001 7.39551 14.0176" stroke="#1E65BC" stroke-width="1.5" stroke-miterlimit="10"/>
<circle cx="15.8064" cy="4.83008" r="3.5" fill="#FF007E" stroke="white"/>
</svg>
