<svg width="14" height="16" viewBox="0 0 14 16" fill="none" xmlns="http://www.w3.org/2000/svg">
<path d="M11.5766 0.449531C11.4162 0.17225 11.1176 0 10.7975 0H7.4519V3.95741H13.6054L11.5766 0.449531Z" fill="#64748B"/>
<path d="M6.51394 0H3.13676C2.81601 0 2.51747 0.172563 2.3571 0.450469L0.335693 3.95741H6.51391V0H6.51394Z" fill="#64748B"/>
<path d="M0 4.89526V14.8974C0 15.5055 0.494875 16 1.10291 16H12.831C13.4391 16 13.9339 15.5055 13.9339 14.8974V4.89526H0ZM9.09556 9.10151L6.67028 11.5268C6.57869 11.6184 6.45862 11.6644 6.33859 11.6644C6.21856 11.6644 6.0985 11.6184 6.00722 11.5268L4.87025 10.3901C4.68737 10.2072 4.68737 9.91023 4.87025 9.72705C5.05344 9.54386 5.35044 9.54386 5.53362 9.72705L6.33862 10.5324L8.43253 8.43845C8.61572 8.25526 8.91272 8.25526 9.09559 8.43845C9.27878 8.62164 9.27878 8.91833 9.09556 9.10151Z" fill="#64748B"/>
</svg>
