<svg width="20" height="20" viewBox="0 0 20 20" fill="none" xmlns="http://www.w3.org/2000/svg">
<path d="M10.7721 5.27173H8.96743V8.96704H5.27212V10.7717H8.96743V14.467H10.7721V10.7717H14.4674V8.96704H10.7721V5.27173ZM9.86978 0.717041C4.79947 0.717041 0.717435 4.79907 0.717435 9.86938C0.717435 14.9397 4.79947 19.0217 9.86978 19.0217C14.9401 19.0217 19.0221 14.9397 19.0221 9.86938C19.0221 4.79907 14.9401 0.717041 9.86978 0.717041ZM9.86978 17.217C5.83072 17.217 2.52212 13.9084 2.52212 9.86938C2.52212 5.83032 5.83072 2.52173 9.86978 2.52173C13.9088 2.52173 17.2174 5.83032 17.2174 9.86938C17.2174 13.9084 13.9088 17.217 9.86978 17.217Z" fill="#1E65BC"/>
</svg>
